<?xml version="1.0" encoding="utf-8"?>
<!-- Generator: Adobe Illustrator 24.0.2, SVG Export Plug-In . SVG Version: 6.00 Build 0)  -->
<svg version="1.1" xmlns="http://www.w3.org/2000/svg" xmlns:xlink="http://www.w3.org/1999/xlink" x="0px" y="0px"
	 viewBox="0 0 500 500" style="enable-background:new 0 0 500 500;" xml:space="preserve">
<style type="text/css">
	.st0{display:none;}
	.st1{display:inline;fill:#FFFFFF;}
	.st2{display:inline;}
	.st3{fill:#FFFFFF;}
	.st4{fill:#525252;}
</style>
<g id="Camada_1">
	<g class="st0">
		<circle class="st1" cx="659.5" cy="250" r="21"/>
		<path class="st2" d="M659.5,229.5c11.3,0,20.5,9.2,20.5,20.5s-9.2,20.5-20.5,20.5S639,261.3,639,250S648.2,229.5,659.5,229.5
			 M659.5,228.5c-11.87,0-21.5,9.63-21.5,21.5s9.63,21.5,21.5,21.5S681,261.87,681,250S671.37,228.5,659.5,228.5L659.5,228.5z"/>
	</g>
	<g class="st0">
		<circle class="st1" cx="-158.5" cy="250" r="21"/>
		<path class="st2" d="M-158.5,229.5c11.3,0,20.5,9.2,20.5,20.5s-9.2,20.5-20.5,20.5S-179,261.3-179,250S-169.8,229.5-158.5,229.5
			 M-158.5,228.5c-11.87,0-21.5,9.63-21.5,21.5s9.63,21.5,21.5,21.5s21.5-9.63,21.5-21.5S-146.63,228.5-158.5,228.5L-158.5,228.5z"
			/>
	</g>
</g>
<g id="Camada_2" class="st0">
	<g class="st2">
		<path class="st3" d="M250.5,493.5c-65.04,0-126.19-25.33-172.18-71.32C32.33,376.19,7,315.04,7,250S32.33,123.81,78.32,77.82
			C124.31,31.83,185.46,6.5,250.5,6.5s126.19,25.33,172.18,71.32C468.67,123.81,494,184.96,494,250s-25.33,126.19-71.32,172.18
			S315.54,493.5,250.5,493.5z"/>
		<path class="st4" d="M250.5,13c32,0,63.04,6.26,92.25,18.62c28.22,11.94,53.57,29.03,75.34,50.8s38.86,47.12,50.8,75.34
			C481.24,186.96,487.5,218,487.5,250s-6.26,63.04-18.62,92.25c-11.94,28.22-29.03,53.57-50.8,75.34s-47.12,38.86-75.34,50.8
			C313.54,480.74,282.5,487,250.5,487s-63.04-6.26-92.25-18.62c-28.22-11.94-53.57-29.03-75.34-50.8s-38.86-47.12-50.8-75.34
			C19.76,313.04,13.5,282,13.5,250s6.26-63.04,18.62-92.25c11.94-28.22,29.03-53.57,50.8-75.34s47.12-38.86,75.34-50.8
			C187.46,19.26,218.5,13,250.5,13 M250.5,0C112.43,0,0.5,111.93,0.5,250s111.93,250,250,250s250-111.93,250-250S388.57,0,250.5,0
			L250.5,0z"/>
	</g>
	<g class="st2">
		<path class="st4" d="M252.8,102.38c6.07,2.46,8.16,7.08,7.95,13.44c-0.28,8.34,0.04,16.7-0.14,25.05
			c-0.05,2.31-0.56,4.82-1.59,6.87c-1.9,3.8-6.38,5.59-10.53,4.77c-3.95-0.78-7.22-4.13-7.89-8.2c-0.22-1.32-0.27-2.67-0.27-4.01
			c-0.02-8.16,0.2-16.33-0.08-24.47c-0.22-6.36,1.88-10.98,7.95-13.44C249.73,102.38,251.27,102.38,252.8,102.38z"/>
		<path class="st4" d="M398.14,252.3c-2.46,6.07-7.08,8.16-13.44,7.95c-8.34-0.28-16.7,0.04-25.05-0.14
			c-2.32-0.05-4.82-0.56-6.87-1.59c-3.81-1.9-5.59-6.38-4.77-10.53c0.78-3.95,4.13-7.22,8.2-7.89c1.32-0.22,2.67-0.27,4.01-0.27
			c8.16-0.02,16.33,0.2,24.48-0.08c6.36-0.22,10.98,1.88,13.44,7.95C398.14,249.23,398.14,250.77,398.14,252.3z"/>
		<path class="st4" d="M250.53,324.23c-40.36,0.03-74.11-33.67-74.28-74.17c-0.16-40.32,33.42-73.99,74.09-74.29
			c40.3-0.3,74.59,33.94,74.39,74.28C324.54,290.67,291,324.2,250.53,324.23z M250.08,303.83c29.8,0.56,53.49-22.71,54.25-53.28
			c0.74-29.81-22.85-53.82-53.43-54.39c-29.8-0.56-53.49,22.71-54.25,53.28C195.92,279.25,219.51,303.26,250.08,303.83z"/>
		<path class="st4" d="M127.83,260.16c-4.9,0-9.8,0.14-14.69-0.04c-5.43-0.2-9.08-3.32-10.08-8.19c-0.89-4.3,1.43-9.04,5.61-10.95
			c1.52-0.69,3.32-1.08,5-1.1c9.6-0.1,19.21-0.14,28.81-0.02c5.59,0.07,9.76,3.55,10.55,8.4c0.78,4.75-1.75,9.38-6.31,11.07
			c-1.58,0.58-3.37,0.78-5.07,0.82c-4.61,0.11-9.22,0.04-13.83,0.04C127.83,260.17,127.83,260.16,127.83,260.16z"/>
		<path class="st4" d="M240.54,372.32c0-5.46-0.29-10.95,0.09-16.39c0.32-4.61,4.31-8.11,8.76-8.54c4.73-0.45,9.03,2.21,10.59,6.67
			c0.4,1.16,0.66,2.43,0.66,3.66c0.05,9.79,0.19,19.58-0.02,29.36c-0.17,7.58-7.11,12.46-13.66,9.81c-4.48-1.82-6.58-5.4-6.63-10.17
			c-0.05-4.8-0.01-9.6-0.01-14.39C240.39,372.32,240.47,372.32,240.54,372.32z"/>
		<path class="st4" d="M326.78,315.22c2.14,1.14,4.66,1.87,6.35,3.48c7.28,6.96,14.38,14.11,21.42,21.31
			c4.21,4.3,4.2,10.17,0.26,14.17c-4.04,4.09-9.96,4.08-14.38-0.24c-7.06-6.92-14.03-13.92-20.97-20.96
			c-3.11-3.15-4.03-6.9-2.31-11.09C318.68,318.19,322.46,315.77,326.78,315.22z"/>
		<path class="st4" d="M184.23,174.3c-0.14,3.99-1.96,6.98-5.51,8.79c-3.58,1.82-7.14,1.49-10.29-0.96
			c-1.96-1.53-3.66-3.39-5.43-5.15c-5.59-5.56-11.2-11.09-16.7-16.73c-4.34-4.45-4.49-10.39-0.53-14.42
			c4.11-4.18,10.04-4.05,14.6,0.46c6.84,6.75,13.59,13.59,20.4,20.37C182.91,168.77,184.29,171.19,184.23,174.3z"/>
		<path class="st4" d="M316.64,172.99c0.61-1.21,1.28-3.78,2.88-5.46c7.1-7.44,14.4-14.69,21.77-21.86
			c4.06-3.94,9.85-3.81,13.76-0.02c3.84,3.71,4.22,9.74,0.36,13.75c-7.26,7.55-14.69,14.94-22.23,22.2
			c-3.02,2.91-6.85,3.46-10.71,1.63C318.76,181.47,316.95,178.33,316.64,172.99z"/>
		<path class="st4" d="M184.33,327.06c-0.63,1.21-1.36,3.85-3.02,5.59c-7.03,7.37-14.27,14.55-21.57,21.65
			c-4.06,3.95-9.83,3.84-13.76,0.07c-3.85-3.7-4.26-9.73-0.41-13.74c7.25-7.56,14.69-14.94,22.22-22.21
			c3.01-2.91,6.85-3.49,10.7-1.67C182.19,318.5,184.06,321.6,184.33,327.06z"/>
	</g>
</g>
<g id="Camada_3">
	<g>
		<g>
			<path class="st3" d="M250,493.5c-65.04,0-126.19-25.33-172.18-71.32C31.83,376.19,6.5,315.04,6.5,250S31.83,123.81,77.82,77.82
				C123.81,31.83,184.96,6.5,250,6.5s126.19,25.33,172.18,71.32C468.17,123.81,493.5,184.96,493.5,250s-25.33,126.19-71.32,172.18
				S315.04,493.5,250,493.5z"/>
			<path class="st4" d="M250,13c32,0,63.04,6.26,92.25,18.62c28.22,11.94,53.57,29.03,75.34,50.8s38.86,47.12,50.8,75.34
				C480.74,186.96,487,218,487,250s-6.26,63.04-18.62,92.25c-11.94,28.22-29.03,53.57-50.8,75.34s-47.12,38.86-75.34,50.8
				C313.04,480.74,282,487,250,487s-63.04-6.26-92.25-18.62c-28.22-11.94-53.57-29.03-75.34-50.8s-38.86-47.12-50.8-75.34
				C19.26,313.04,13,282,13,250s6.26-63.04,18.62-92.25c11.94-28.22,29.03-53.57,50.8-75.34s47.12-38.86,75.34-50.8
				C186.96,19.26,218,13,250,13 M250,0C111.93,0,0,111.93,0,250s111.93,250,250,250s250-111.93,250-250S388.07,0,250,0L250,0z"/>
		</g>
		<path class="st4" d="M398.76,281.31c-2.66,7.95-4.91,16.07-8.04,23.83c-8.5,21.06-21.36,39.17-38.29,54.33
			c-17.75,15.89-38.17,26.99-61.11,33.31c-16.55,4.56-33.44,6.24-50.6,4.91c-36.56-2.84-68.05-17.06-94.24-42.62
			c-22.98-22.42-37.31-49.63-42.89-81.29c-5.23-29.69-1.72-58.44,10.24-86.06c10.4-24.02,26.22-43.92,47.05-59.81
			c15.24-11.63,32.09-20.06,50.49-25.42c5.06-1.47,9.61-0.27,12.23,3.4c2.75,3.86,2.56,8.1-0.99,12.54
			c-13.47,16.8-20.84,36.08-23,57.35c-2.42,23.81,2.39,46.21,14.27,66.99c12.27,21.47,29.91,37.11,52.54,46.93
			c18.96,8.22,38.8,10.93,59.35,8.17c20.76-2.8,39.09-11.11,55.44-24.09c1.91-1.52,4.26-2.85,6.61-3.36
			c4.96-1.09,8.28,1.22,10.95,6.83C398.76,278.6,398.76,279.96,398.76,281.31z M191.41,132.07
			c-44.58,22.64-77.44,75.08-67.97,135.61c9.18,58.68,57.76,104.68,117.9,109.83c57.26,4.9,106.75-27.95,128.66-71.93
			c-54.82,22.77-106.35,17.94-149.77-24.14C176.72,239.26,170.18,187.88,191.41,132.07z"/>
	</g>
</g>
</svg>
