<?xml version="1.0" encoding="utf-8"?>
<!-- Generator: Adobe Illustrator 24.0.1, SVG Export Plug-In . SVG Version: 6.00 Build 0)  -->
<svg version="1.1" id="Capa_1" xmlns="http://www.w3.org/2000/svg" xmlns:xlink="http://www.w3.org/1999/xlink" x="0px" y="0px"
	 viewBox="0 0 512 512" style="enable-background:new 0 0 512 512;" xml:space="preserve">
<style type="text/css">
	.st0{fill:#FFFFFF;}
</style>
<g>
	<g>
		<path class="st0" d="M352,0H160C71.6,0,0,71.6,0,160v192c0,88.4,71.6,160,160,160h192c88.4,0,160-71.6,160-160V160
			C512,71.6,440.4,0,352,0z M464,352c0,61.8-50.2,112-112,112H160c-61.8,0-112-50.2-112-112V160C48,98.2,98.2,48,160,48h192
			c61.8,0,112,50.2,112,112V352z"/>
	</g>
</g>
<g>
	<g>
		<path class="st0" d="M256.3,128c-70.7-0.1-128.1,57.1-128.3,127.7c-0.1,70.7,57.1,128.1,127.7,128.3S383.9,326.9,384,256.3
			S326.9,128.1,256.3,128z M255.8,336c-44.1-0.1-79.9-36.1-79.8-80.2c0.1-44.1,36.1-79.9,80.2-79.8s79.9,36,79.8,80.2
			C335.9,300.3,299.9,336.1,255.8,336z"/>
	</g>
</g>
<g>
	<g>
		<circle class="st0" cx="393.6" cy="118.4" r="17.1"/>
	</g>
</g>
</svg>
