<?xml version="1.0" encoding="utf-8"?>
<!-- Generator: Adobe Illustrator 24.0.2, SVG Export Plug-In . SVG Version: 6.00 Build 0)  -->
<svg version="1.1" xmlns="http://www.w3.org/2000/svg" xmlns:xlink="http://www.w3.org/1999/xlink" x="0px" y="0px"
	 viewBox="0 0 861 500" style="enable-background:new 0 0 861 500;" xml:space="preserve">
<style type="text/css">
	.st0{fill:#FFFFFF;}
	.st1{fill:#525252;}
	.st2{display:none;}
	.st3{display:inline;fill:#FFFFFF;}
	.st4{display:inline;}
</style>
<g id="Camada_1">
	<g>
		<path class="st0" d="M250,493.5c-65.04,0-126.19-25.33-172.18-71.32C31.83,376.19,6.5,315.04,6.5,250
			c0-65.04,25.33-126.19,71.32-172.18C123.81,31.83,184.96,6.5,250,6.5h361c65.04,0,126.19,25.33,172.18,71.32
			C829.17,123.81,854.5,184.96,854.5,250c0,65.04-25.33,126.19-71.32,172.18S676.04,493.5,611,493.5H250z"/>
		<path class="st1" d="M611,13c32,0,63.04,6.26,92.25,18.62c28.22,11.94,53.57,29.03,75.34,50.8c21.77,21.77,38.86,47.12,50.8,75.34
			C841.74,186.96,848,218,848,250c0,32-6.26,63.04-18.62,92.25c-11.94,28.22-29.03,53.57-50.8,75.34
			c-21.77,21.77-47.12,38.86-75.34,50.8C674.04,480.74,643,487,611,487H250c-32,0-63.04-6.26-92.25-18.62
			c-28.22-11.94-53.57-29.03-75.34-50.8c-21.77-21.77-38.86-47.12-50.8-75.34C19.26,313.04,13,282,13,250
			c0-32,6.26-63.04,18.62-92.25c11.94-28.22,29.03-53.57,50.8-75.34c21.77-21.77,47.12-38.86,75.34-50.8C186.96,19.26,218,13,250,13
			H611 M611,0H250C111.93,0,0,111.93,0,250v0c0,138.07,111.93,250,250,250h361c138.07,0,250-111.93,250-250v0
			C861,111.93,749.07,0,611,0L611,0z"/>
	</g>
	<g class="st2">
		<circle class="st3" cx="839.5" cy="250" r="21"/>
		<path class="st4" d="M839.5,229.5c11.3,0,20.5,9.2,20.5,20.5s-9.2,20.5-20.5,20.5S819,261.3,819,250S828.2,229.5,839.5,229.5
			 M839.5,228.5c-11.87,0-21.5,9.63-21.5,21.5s9.63,21.5,21.5,21.5S861,261.87,861,250S851.37,228.5,839.5,228.5L839.5,228.5z"/>
	</g>
	<g class="st2">
		<circle class="st3" cx="21.5" cy="250" r="21"/>
		<path class="st4" d="M21.5,229.5c11.3,0,20.5,9.2,20.5,20.5s-9.2,20.5-20.5,20.5S1,261.3,1,250S10.2,229.5,21.5,229.5 M21.5,228.5
			C9.63,228.5,0,238.13,0,250s9.63,21.5,21.5,21.5S43,261.87,43,250S33.37,228.5,21.5,228.5L21.5,228.5z"/>
	</g>
</g>
<g id="Camada_2">
	<g>
		<g>
			<circle class="st0" cx="608" cy="250" r="203.5"/>
			<path class="st1" d="M608,53c26.6,0,52.4,5.21,76.68,15.48c23.46,9.92,44.53,24.13,62.62,42.22c18.1,18.1,32.3,39.17,42.22,62.62
				C799.79,197.6,805,223.4,805,250s-5.21,52.4-15.48,76.68c-9.92,23.46-24.13,44.53-42.22,62.62c-18.1,18.1-39.17,32.3-62.62,42.22
				C660.4,441.79,634.6,447,608,447s-52.4-5.21-76.68-15.48c-23.46-9.92-44.53-24.13-62.62-42.22c-18.1-18.1-32.3-39.17-42.22-62.62
				C416.21,302.4,411,276.6,411,250s5.21-52.4,15.48-76.68c9.92-23.46,24.13-44.53,42.22-62.62c18.1-18.1,39.17-32.3,62.62-42.22
				C555.6,58.21,581.4,53,608,53 M608,40c-115.98,0-210,94.02-210,210s94.02,210,210,210s210-94.02,210-210S723.98,40,608,40L608,40
				z"/>
		</g>
		<g>
			<path class="st1" d="M609.93,126c5.1,2.07,6.86,5.95,6.68,11.29c-0.24,7.01,0.03,14.03-0.12,21.04
				c-0.04,1.94-0.47,4.05-1.34,5.77c-1.6,3.2-5.36,4.69-8.85,4.01c-3.32-0.65-6.07-3.47-6.63-6.89c-0.18-1.11-0.23-2.25-0.23-3.37
				c-0.02-6.85,0.17-13.71-0.07-20.56c-0.19-5.34,1.58-9.22,6.68-11.29C607.35,126,608.64,126,609.93,126z"/>
			<path class="st1" d="M732.02,251.94c-2.07,5.1-5.95,6.86-11.29,6.68c-7.01-0.24-14.03,0.03-21.04-0.12
				c-1.94-0.04-4.05-0.47-5.77-1.34c-3.2-1.6-4.69-5.36-4.01-8.84c0.65-3.32,3.47-6.07,6.89-6.63c1.11-0.18,2.25-0.23,3.37-0.23
				c6.85-0.02,13.72,0.17,20.56-0.07c5.34-0.19,9.23,1.58,11.29,6.68C732.02,249.35,732.02,250.64,732.02,251.94z"/>
			<path class="st1" d="M608.03,312.35c-33.91,0.02-62.26-28.28-62.39-62.3c-0.14-33.86,28.07-62.15,62.24-62.4
				c33.85-0.25,62.65,28.51,62.49,62.39C670.19,284.17,642.02,312.33,608.03,312.35z M607.65,295.22
				c25.03,0.47,44.93-19.08,45.57-44.76c0.62-25.04-19.19-45.21-44.88-45.69c-25.03-0.47-44.93,19.08-45.57,44.76
				C562.15,274.57,581.97,294.74,607.65,295.22z"/>
			<path class="st1" d="M504.95,258.53c-4.11,0-8.23,0.12-12.34-0.03c-4.56-0.17-7.62-2.79-8.47-6.88c-0.75-3.61,1.2-7.6,4.72-9.2
				c1.28-0.58,2.79-0.91,4.2-0.92c8.07-0.09,16.13-0.11,24.2-0.01c4.7,0.06,8.2,2.98,8.87,7.05c0.65,3.99-1.47,7.88-5.3,9.3
				c-1.33,0.49-2.83,0.66-4.26,0.69c-3.87,0.09-7.74,0.03-11.62,0.03C504.95,258.55,504.95,258.54,504.95,258.53z"/>
			<path class="st1" d="M599.64,352.75c0-4.59-0.24-9.2,0.07-13.77c0.27-3.87,3.62-6.82,7.36-7.17c3.97-0.38,7.58,1.85,8.89,5.6
				c0.34,0.97,0.55,2.04,0.56,3.07c0.04,8.22,0.16,16.45-0.02,24.66c-0.14,6.37-5.97,10.47-11.47,8.24
				c-3.76-1.52-5.53-4.53-5.57-8.55c-0.04-4.03-0.01-8.06-0.01-12.09C599.51,352.75,599.57,352.75,599.64,352.75z"/>
			<path class="st1" d="M672.08,304.79c1.8,0.96,3.91,1.57,5.33,2.92c6.12,5.84,12.08,11.85,17.99,17.9
				c3.53,3.61,3.53,8.54,0.21,11.9c-3.39,3.44-8.37,3.43-12.08-0.2c-5.93-5.81-11.78-11.69-17.61-17.6
				c-2.61-2.65-3.39-5.8-1.94-9.32C665.27,307.28,668.44,305.24,672.08,304.79z"/>
			<path class="st1" d="M552.34,186.41c-0.12,3.35-1.65,5.86-4.63,7.38c-3.01,1.53-5.99,1.25-8.64-0.81
				c-1.65-1.28-3.08-2.85-4.56-4.32c-4.69-4.67-9.41-9.32-14.03-14.05c-3.65-3.74-3.77-8.73-0.44-12.12
				c3.45-3.51,8.43-3.4,12.27,0.38c5.74,5.67,11.42,11.41,17.14,17.11C551.23,181.76,552.38,183.8,552.34,186.41z"/>
			<path class="st1" d="M663.55,185.31c0.52-1.02,1.07-3.18,2.42-4.59c5.96-6.25,12.09-12.34,18.29-18.36
				c3.41-3.31,8.27-3.2,11.55-0.02c3.22,3.12,3.54,8.18,0.3,11.55c-6.09,6.34-12.34,12.55-18.67,18.65
				c-2.53,2.44-5.76,2.91-8.99,1.37C665.34,192.44,663.82,189.8,663.55,185.31z"/>
			<path class="st1" d="M552.41,314.73c-0.53,1.01-1.14,3.23-2.54,4.7c-5.9,6.19-11.98,12.22-18.12,18.18
				c-3.41,3.32-8.26,3.22-11.56,0.06c-3.24-3.11-3.58-8.18-0.34-11.54c6.09-6.35,12.34-12.55,18.67-18.66
				c2.53-2.44,5.75-2.93,8.99-1.4C550.62,307.54,552.19,310.15,552.41,314.73z"/>
		</g>
	</g>
</g>
<g id="Camada_3" class="st2">
	<g class="st4">
		<g>
			<circle class="st0" cx="253" cy="250" r="203.5"/>
			<path class="st1" d="M253,53c26.6,0,52.4,5.21,76.68,15.48c23.46,9.92,44.53,24.13,62.62,42.22c18.1,18.1,32.3,39.17,42.22,62.62
				C444.79,197.6,450,223.4,450,250s-5.21,52.4-15.48,76.68c-9.92,23.46-24.13,44.53-42.22,62.62c-18.1,18.1-39.17,32.3-62.62,42.22
				C305.4,441.79,279.6,447,253,447s-52.4-5.21-76.68-15.48c-23.46-9.92-44.53-24.13-62.62-42.22c-18.1-18.1-32.3-39.17-42.22-62.62
				C61.21,302.4,56,276.6,56,250s5.21-52.4,15.48-76.68c9.92-23.46,24.13-44.53,42.22-62.62s39.17-32.3,62.62-42.22
				C200.6,58.21,226.4,53,253,53 M253,40C137.02,40,43,134.02,43,250s94.02,210,210,210s210-94.02,210-210S368.98,40,253,40L253,40z
				"/>
		</g>
		<path class="st1" d="M377.96,276.3c-2.23,6.68-4.12,13.5-6.76,20.02c-7.14,17.69-17.94,32.9-32.17,45.63
			c-14.91,13.35-32.06,22.67-51.33,27.98c-13.9,3.83-28.09,5.24-42.51,4.12c-30.71-2.38-57.16-14.33-79.16-35.8
			c-19.3-18.84-31.34-41.69-36.03-68.29c-4.39-24.94-1.45-49.09,8.6-72.29c8.74-20.18,22.03-36.89,39.52-50.24
			c12.8-9.77,26.96-16.85,42.42-21.36c4.25-1.24,8.07-0.23,10.27,2.86c2.31,3.24,2.15,6.81-0.83,10.53
			c-11.32,14.12-17.5,30.31-19.32,48.17c-2.03,20,2.01,38.81,11.99,56.27c10.31,18.04,25.12,31.18,44.14,39.42
			c15.93,6.91,32.59,9.19,49.85,6.86c17.44-2.35,32.84-9.33,46.57-20.24c1.6-1.27,3.58-2.39,5.55-2.82
			c4.17-0.92,6.96,1.03,9.19,5.74C377.96,274.02,377.96,275.16,377.96,276.3z M203.78,150.94c-37.45,19.02-65.05,63.07-57.1,113.91
			c7.71,49.29,48.52,87.93,99.04,92.26c48.1,4.12,89.67-23.48,108.08-60.43c-46.05,19.13-89.33,15.07-125.81-20.28
			C191.45,240.98,185.95,197.82,203.78,150.94z"/>
	</g>
</g>
</svg>
